<?xml version="1.0" standalone="no"?><!DOCTYPE svg PUBLIC "-//W3C//DTD SVG 1.1//EN" "http://www.w3.org/Graphics/SVG/1.1/DTD/svg11.dtd"><svg t="1766813156606" class="icon" viewBox="0 0 1024 1024" version="1.1" xmlns="http://www.w3.org/2000/svg" p-id="9984" xmlns:xlink="http://www.w3.org/1999/xlink" width="200" height="200"><path d="M141.963636 1024c-34.909091 0-72.145455-13.963636-97.745454-41.890909-53.527273-53.527273-53.527273-141.963636 0-197.818182l428.218182-428.218182c-27.927273-97.745455 0-202.472727 72.145454-274.618182C609.745455 16.290909 702.836364-11.636364 793.6 4.654545l20.945455 4.654546-13.963637 16.290909c-46.545455 55.854545-44.218182 137.309091 6.981818 188.509091 51.2 51.2 134.981818 53.527273 188.509091 6.981818l13.963637-11.636364 4.654545 20.945455c16.290909 90.763636-11.636364 183.854545-76.8 249.018182-69.818182 69.818182-169.890909 97.745455-265.309091 74.472727L242.036364 984.436364C214.109091 1010.036364 179.2 1024 141.963636 1024zM740.072727 25.6c-67.490909 0-132.654545 25.6-181.527272 74.472727-65.163636 65.163636-90.763636 162.909091-65.163637 251.345455l4.654546 13.963636L60.509091 802.909091c-44.218182 44.218182-44.218182 118.690909 0 165.236364 44.218182 44.218182 118.690909 44.218182 165.236364 0l439.854545-439.854546 11.636364 2.327273c88.436364 20.945455 179.2-2.327273 244.363636-67.490909 55.854545-55.854545 81.454545-132.654545 74.472727-209.454546-62.836364 41.890909-148.945455 34.909091-204.8-20.945454-55.854545-55.854545-62.836364-141.963636-20.945454-204.8-11.636364-2.327273-20.945455-2.327273-30.254546-2.327273z" fill="#2B2B33" p-id="9985"></path></svg>